<?xml version="1.0" encoding="UTF-8"?>
<svg xmlns="http://www.w3.org/2000/svg" xmlns:xlink="http://www.w3.org/1999/xlink" viewBox="0 0 116 116" version="1.1">
<g id="surface1">
<path style=" stroke:none;fill-rule:nonzero;fill:rgb(97.254902%,97.254902%,97.254902%);fill-opacity:1;" d="M 98.257812 34.21875 C 103.433594 35.917969 110.308594 39.699219 113.894531 48.140625 C 111.941406 47.128906 100.125 41.09375 91.683594 38.710938 C 90.351562 36.109375 88.953125 34.003906 87.859375 32.542969 C 88.847656 32.523438 93.25 32.566406 98.257812 34.21875 Z M 98.257812 34.21875 "/>
<path style=" stroke:none;fill-rule:nonzero;fill:rgb(97.254902%,97.254902%,97.254902%);fill-opacity:1;" d="M 39.546875 13.019531 C 39.957031 12.976562 40.386719 12.953125 40.816406 12.910156 C 42.019531 12.824219 43.222656 12.78125 44.421875 12.78125 C 60.382812 12.78125 76.300781 20.277344 96.539062 30.695312 C 97.054688 30.953125 97.546875 31.234375 98.042969 31.492188 C 92.863281 30.265625 86.054688 30.203125 85.925781 30.179688 C 85.882812 30.179688 84.035156 30.136719 80.707031 30.265625 C 80.148438 29.878906 71.898438 24.144531 59.632812 19.074219 C 52.070312 15.980469 42.210938 13.640625 39.546875 13.019531 Z M 39.546875 13.019531 "/>
<path style=" stroke:none;fill-rule:nonzero;fill:rgb(97.254902%,97.254902%,97.254902%);fill-opacity:1;" d="M 96.28125 61.285156 C 99.074219 61.996094 109.019531 66.871094 110.265625 67.496094 C 106.699219 71.621094 101.519531 73.789062 98.644531 72.628906 C 95.808594 71.492188 95.9375 68.71875 96.171875 64.101562 C 96.195312 63.21875 96.238281 62.273438 96.28125 61.285156 Z M 96.28125 61.285156 "/>
<path style=" stroke:none;fill-rule:nonzero;fill:rgb(97.254902%,97.254902%,97.254902%);fill-opacity:1;" d="M 112.714844 63.714844 C 112.328125 64.53125 111.875 65.304688 111.359375 66.035156 C 110.199219 65.476562 99.289062 60.234375 96.28125 59.480469 C 96.28125 57.097656 96.152344 54.414062 95.679688 51.40625 C 100.125 52.5 113.144531 59.117188 114.195312 59.652344 C 113.789062 61.242188 113.230469 62.640625 112.714844 63.714844 Z M 112.714844 63.714844 "/>
<path style=" stroke:none;fill-rule:nonzero;fill:rgb(97.254902%,97.254902%,97.254902%);fill-opacity:1;" d="M 114.605469 50.675781 C 115.078125 53.339844 114.96875 55.808594 114.5625 57.980469 C 113.078125 57.183594 100.082031 50.351562 95.335938 49.429688 C 95.097656 48.226562 94.796875 46.957031 94.410156 45.648438 C 93.9375 43.992188 93.359375 42.425781 92.714844 40.964844 C 97.140625 41.996094 114.433594 50.609375 114.605469 50.675781 Z M 114.605469 50.675781 "/>
<path style=" stroke:none;fill-rule:nonzero;fill:rgb(97.254902%,97.254902%,97.254902%);fill-opacity:1;" d="M 24.941406 16.496094 C 27.863281 15.292969 31.148438 14.308594 34.949219 13.640625 C 35.59375 13.769531 47.644531 16.066406 56.21875 19.613281 C 67.539062 24.273438 76.128906 29.40625 77.828125 30.4375 C 75.25 30.589844 72.136719 30.824219 68.546875 31.210938 C 67.066406 31.363281 65.582031 31.578125 64.144531 31.792969 C 63.519531 31.425781 52.652344 25.070312 44.722656 22.125 C 33.617188 17.980469 26.679688 16.753906 24.941406 16.496094 Z M 24.941406 16.496094 "/>
<path style=" stroke:none;fill-rule:nonzero;fill:rgb(97.254902%,97.254902%,97.254902%);fill-opacity:1;" d="M 35.59375 40.835938 C 32.179688 42.425781 29.019531 44.035156 26.121094 45.5625 C 25.347656 45.066406 16.476562 39.527344 3.757812 36.003906 C 4.8125 33.875 6.035156 31.855469 7.304688 30.09375 C 8.078125 30.246094 14.757812 31.683594 21.074219 34.199219 C 24.058594 35.359375 34.003906 40.0625 35.59375 40.835938 Z M 35.59375 40.835938 "/>
<path style=" stroke:none;fill-rule:nonzero;fill:rgb(97.254902%,97.254902%,97.254902%);fill-opacity:1;" d="M 23.394531 46.980469 C 13.425781 52.242188 6.851562 55.722656 3.15625 52.007812 C 1.675781 50.523438 0.945312 48.484375 0.964844 45.949219 C 0.988281 43.351562 1.804688 40.449219 3.007812 37.636719 C 11.257812 39.675781 22.664062 45.667969 24.253906 46.527344 C 23.972656 46.679688 23.671875 46.828125 23.394531 46.980469 Z M 23.394531 46.980469 "/>
<path style=" stroke:none;fill-rule:nonzero;fill:rgb(97.254902%,97.254902%,97.254902%);fill-opacity:1;" d="M 15.207031 22.191406 C 17.226562 20.621094 19.503906 19.117188 22.125 17.785156 C 22.898438 17.914062 30.953125 19.355469 39.613281 22.125 C 47.667969 24.703125 59.546875 31.167969 61.480469 32.242188 C 57.292969 33.039062 53.316406 34.089844 49.558594 35.292969 C 48.933594 34.949219 40.191406 29.988281 31.726562 26.917969 C 23.886719 24.058594 16.667969 22.511719 15.207031 22.191406 Z M 15.207031 22.191406 "/>
<path style=" stroke:none;fill-rule:nonzero;fill:rgb(97.254902%,97.254902%,97.254902%);fill-opacity:1;" d="M 13.578125 23.523438 C 14.542969 23.738281 24.769531 25.992188 29.75 27.882812 C 34.347656 29.621094 45.582031 35.144531 47.34375 36.023438 C 43.886719 37.226562 40.621094 38.558594 37.550781 39.933594 C 36.796875 39.546875 26.765625 34.476562 22.125 32.652344 C 15.273438 29.945312 9.601562 28.742188 8.507812 28.527344 C 9.171875 27.710938 9.816406 27.003906 10.417969 26.402344 C 11.40625 25.457031 12.4375 24.488281 13.578125 23.523438 Z M 13.578125 23.523438 "/>
<path style=" stroke:none;fill-rule:nonzero;fill:rgb(97.254902%,97.254902%,97.254902%);fill-opacity:1;" d="M 49.085938 61.199219 L 45.691406 55.335938 L 22.382812 95.699219 L 37.980469 95.699219 L 70.117188 40.0625 L 106.65625 103.347656 L 51.449219 103.347656 L 66.164062 77.847656 L 70.566406 85.476562 L 64.660156 95.699219 L 93.421875 95.699219 L 70.117188 55.335938 L 42.382812 103.347656 L 9.171875 103.347656 L 45.691406 40.0625 L 53.488281 53.574219 Z M 49.085938 61.199219 "/>
</g>
</svg>
