<?xml version="1.0" encoding="utf-8"?>
<!-- Generator: Adobe Illustrator 27.0.0, SVG Export Plug-In . SVG Version: 6.00 Build 0)  -->
<svg version="1.1" id="Calque_1" xmlns="http://www.w3.org/2000/svg" xmlns:xlink="http://www.w3.org/1999/xlink" x="0px" y="0px"
	 viewBox="0 0 540 540" style="enable-background:new 0 0 540 540;" xml:space="preserve">
<style type="text/css">
	.st0{fill:#3B1C4A;}
</style>
<path class="st0" d="M0,0v540h540V0H0z M530.2,224.1c-9.1-4.7-64.1-32.8-103.4-43.9c-6.2-12.1-12.7-21.9-17.8-28.7
	c4.6-0.1,25.1,0.1,48.4,7.8C481.5,167.1,513.5,184.8,530.2,224.1z M189.9,60.2c5.6-0.4,11.2-0.6,16.8-0.6
	c74.3,0,148.4,34.9,242.6,83.4c2.4,1.2,4.7,2.5,7,3.7c-24.1-5.7-55.8-6-56.4-6.1l0,0c-0.2,0-8.8-0.2-24.3,0.4
	c-2.6-1.8-41-28.5-98.1-52.1c-35.2-14.5-81-25.5-93.5-28.3C186,60.5,188,60.3,189.9,60.2z M162.7,63.5c3,0.6,59.1,11.3,99,27.8
	c52.7,21.7,92.7,45.6,100.6,50.4c-12,0.7-26.5,1.8-43.2,3.6c-6.9,0.7-13.8,1.7-20.5,2.7c-2.9-1.7-53.5-31.3-90.4-45
	c-51.7-19.3-84.1-25-92.1-26.2C129.7,71.1,145,66.5,162.7,63.5z M103,82.8c3.6,0.6,41.1,7.3,81.4,20.2c37.5,12,92.8,42.1,101.8,47.1
	c-19.5,3.7-38,8.6-55.5,14.2c-2.9-1.6-43.6-24.7-83-39c-36.5-13.3-70.1-20.6-76.9-22C80.2,96,90.8,89,103,82.8z M48.5,123
	c4.6-4.5,9.5-9,14.7-13.4c4.5,1,52.1,11.5,75.3,20.3c21.4,8.1,73.7,33.8,81.9,37.9c-16.1,5.6-31.3,11.8-45.6,18.2
	c-3.5-1.8-50.2-25.4-71.8-33.9c-31.9-12.6-58.3-18.2-63.4-19.2C42.6,129,45.6,125.7,48.5,123z M34,140.1c3.6,0.7,34.7,7.4,64.1,19.1
	c13.9,5.5,60.2,27.4,67.6,30.9c-15.9,7.4-30.6,14.9-44.1,22c-3.6-2.3-44.9-28.1-104.1-44.5C22.4,157.6,28.2,148.2,34,140.1z
	 M14.7,242.1c-6.9-6.9-10.3-16.4-10.2-28.2c0.1-12.1,3.9-25.6,9.5-38.7c38.4,9.5,91.5,37.4,98.9,41.4c-1.4,0.7-2.7,1.4-4,2.1
	C62.5,243.2,31.9,259.4,14.7,242.1z M239.5,481.1L308,362.4l20.5,35.5L301,445.5l133.9,0l-108.5-188l-129,223.5H42.7l170.1-294.6
	l36.3,62.9l-20.5,35.5l-15.8-27.3l-108.5,188h72.6l149.6-259l170.1,294.6L239.5,481.1z M459.1,338.1c-13.2-5.3-12.6-18.2-11.5-39.7
	c0.2-4.1,0.4-8.5,0.5-13.2c13,3.3,59.3,26,65.1,28.9C496.6,333.4,472.6,343.5,459.1,338.1z M524.7,296.6c-1.8,3.8-3.9,7.4-6.3,10.8
	c-5.4-2.6-56.2-27-70.2-30.5c0-11.1-0.6-23.6-2.8-37.6c20.7,5.1,81.3,35.9,86.2,38.4C529.7,285.1,527.1,291.6,524.7,296.6z
	 M533.4,270c-6.9-3.7-67.4-35.5-89.5-39.8c-1.1-5.6-2.5-11.5-4.3-17.6c-2.2-7.7-4.9-15-7.9-21.8c20.4,4.8,101,44.8,101.8,45.2l0,0
	C535.8,248.3,535.2,259.9,533.4,270z"/>
</svg>
