<?xml version="1.0" encoding="utf-8"?>
<!-- Generator: Adobe Illustrator 27.0.0, SVG Export Plug-In . SVG Version: 6.00 Build 0)  -->
<svg version="1.1" id="Calque_1" xmlns="http://www.w3.org/2000/svg" xmlns:xlink="http://www.w3.org/1999/xlink" x="0px" y="0px"
	 viewBox="0 0 224.2 109.6" style="enable-background:new 0 0 224.2 109.6;" xml:space="preserve">
<style type="text/css">
	.st0{fill:none;}
	.st1{fill:#3B1C4A;}
</style>
<path class="st0" d="M142.9,32.5c-0.2,0-0.5,0-0.7-0.1c-0.2-0.1-0.5-0.2-0.7-0.3c-0.2-0.1-0.4-0.3-0.5-0.5c-0.1-0.2-0.2-0.4-0.2-0.6
	V12c0-0.2,0-0.4,0.1-0.6c0.1-0.2,0.2-0.4,0.4-0.6s0.4-0.3,0.6-0.4c0.3-0.1,0.6-0.2,0.9-0.2h0.5c0.5,0,0.8,0.1,1.1,0.4
	c0.3,0.3,0.4,0.5,0.4,0.7v12.9h10.3V11.3c0-0.2,0.1-0.5,0.4-0.7c0.3-0.3,0.7-0.4,1.1-0.4h0.3c0.3,0,0.5,0,0.8,0.1
	c0.3,0.1,0.5,0.2,0.7,0.4c0.2,0.1,0.4,0.3,0.5,0.5s0.2,0.4,0.2,0.6v19.1c0,0.4-0.2,0.8-0.6,1.1c-0.4,0.3-0.9,0.5-1.5,0.5h-1
	c-0.6,0-0.9-0.2-0.9-0.7v-4.5H145v4.5c0,0.5-0.3,0.7-0.9,0.7H142.9z"/>
<path class="st0" d="M142.9,32.5c-0.2,0-0.5,0-0.7-0.1c-0.2-0.1-0.5-0.2-0.7-0.3c-0.2-0.1-0.4-0.3-0.5-0.5c-0.1-0.2-0.2-0.4-0.2-0.6
	V12c0-0.2,0-0.4,0.1-0.6c0.1-0.2,0.2-0.4,0.4-0.6s0.4-0.3,0.6-0.4c0.3-0.1,0.6-0.2,0.9-0.2h0.5c0.5,0,0.8,0.1,1.1,0.4
	c0.3,0.3,0.4,0.5,0.4,0.7v12.9h10.3V11.3c0-0.2,0.1-0.5,0.4-0.7c0.3-0.3,0.7-0.4,1.1-0.4h0.3c0.3,0,0.5,0,0.8,0.1
	c0.3,0.1,0.5,0.2,0.7,0.4c0.2,0.1,0.4,0.3,0.5,0.5s0.2,0.4,0.2,0.6v19.1c0,0.4-0.2,0.8-0.6,1.1c-0.4,0.3-0.9,0.5-1.5,0.5h-1
	c-0.6,0-0.9-0.2-0.9-0.7v-4.5H145v4.5c0,0.5-0.3,0.7-0.9,0.7H142.9z"/>
<path class="st0" d="M98.7,26.6c1.2,1.6,2.7,3.9,4.2,6.7c9.2,2.6,22.1,9.2,24.3,10.3c-3.9-9.2-11.4-13.4-17.1-15.2
	C104.6,26.6,99.7,26.6,98.7,26.6z"/>
<path class="st0" d="M90.8,24.1c3.6-0.1,5.7-0.1,5.7-0.1l0,0c0.1,0,7.6,0.1,13.2,1.4c-0.5-0.3-1.1-0.6-1.6-0.9
	C86,13.2,68.7,5,51.2,5c-1.3,0-2.6,0-4,0.1c-0.5,0-0.9,0.1-1.4,0.1c2.9,0.7,13.7,3.2,22,6.6C81.2,17.4,90.2,23.7,90.8,24.1z"/>
<path class="st0" d="M72.8,25.8c1.6-0.2,3.2-0.5,4.8-0.6c3.9-0.4,7.3-0.7,10.1-0.8c-1.9-1.1-11.2-6.7-23.6-11.8
	c-9.4-3.9-22.6-6.4-23.3-6.5C36.7,6.6,33.1,7.7,29.9,9c1.9,0.3,9.5,1.6,21.6,6.1C60.2,18.4,72.1,25.4,72.8,25.8z"/>
<path class="st0" d="M56.8,29.6c4.1-1.3,8.4-2.5,13-3.3c-2.1-1.2-15.1-8.2-23.9-11.1c-9.5-3-18.3-4.6-19.1-4.7
	c-2.9,1.4-5.3,3.1-7.5,4.8c1.6,0.3,9.5,2,18.1,5.2C46.6,23.8,56.1,29.2,56.8,29.6z"/>
<path class="st0" d="M43.7,34.7c3.4-1.5,6.9-3,10.7-4.3c-1.9-1-14.2-7-19.2-8.9c-5.5-2.1-16.6-4.5-17.7-4.8c-1.2,1-2.4,2.1-3.4,3.1
	c-0.7,0.6-1.4,1.4-2.1,2.3c1.2,0.2,7.4,1.5,14.9,4.5C31.9,28.7,42.9,34.3,43.7,34.7z"/>
<path class="st0" d="M41.6,35.6c-1.7-0.8-12.6-6-15.9-7.3c-6.9-2.7-14.2-4.3-15-4.5c-1.4,1.9-2.7,4.1-3.9,6.4
	c13.9,3.9,23.6,9.9,24.4,10.5C34.4,39.1,37.8,37.4,41.6,35.6z"/>
<path class="st0" d="M29.2,41.9c-1.7-0.9-14.2-7.5-23.2-9.7c-1.3,3.1-2.2,6.3-2.2,9.1c0,2.8,0.8,5,2.4,6.6c4,4,11.2,0.2,22.1-5.5
	C28.5,42.2,28.8,42,29.2,41.9z"/>
<polygon class="st0" points="44.2,95.6 27.1,95.6 52.6,51.5 56.3,57.9 61.1,49.6 52.6,34.8 12.7,104 49,104 79.3,51.5 104.8,95.6 
	73.3,95.6 79.8,84.4 75,76.1 58.9,104 119.2,104 79.3,34.8 "/>
<path class="st0" d="M107.7,61.1c-0.2,5-0.4,8.1,2.7,9.3c3.1,1.3,8.8-1.1,12.7-5.6c-1.4-0.7-12.2-6-15.3-6.8
	C107.8,59.1,107.8,60.1,107.7,61.1z"/>
<path class="st0" d="M107.9,56c3.3,0.8,15.2,6.6,16.5,7.2c0.6-0.8,1-1.6,1.5-2.5c0.6-1.2,1.2-2.7,1.6-4.5c-1.2-0.6-15.4-7.8-20.2-9
	C107.8,50.5,107.9,53.4,107.9,56z"/>
<path class="st0" d="M127.9,46.4c-0.2-0.1-19.1-9.5-23.9-10.6c0.7,1.6,1.3,3.3,1.8,5.1c0.4,1.4,0.7,2.8,1,4.1c5.2,1,19.4,8.5,21,9.4
	C128.3,52,128.4,49.3,127.9,46.4L127.9,46.4z"/>
<path class="st0" d="M158.5,10.7c-0.2-0.1-0.4-0.3-0.7-0.4c-0.3-0.1-0.5-0.1-0.8-0.1h-0.3c-0.4,0-0.8,0.1-1.1,0.4
	c-0.3,0.3-0.4,0.5-0.4,0.7v12.9H145V11.3c0-0.2-0.1-0.5-0.4-0.7c-0.3-0.3-0.7-0.4-1.1-0.4h-0.5c-0.3,0-0.6,0.1-0.9,0.2
	c-0.3,0.1-0.5,0.2-0.6,0.4s-0.3,0.3-0.4,0.6c-0.1,0.2-0.1,0.4-0.1,0.6v19c0,0.2,0.1,0.4,0.2,0.6c0.1,0.2,0.3,0.4,0.5,0.5
	c0.2,0.1,0.4,0.2,0.7,0.3c0.2,0.1,0.5,0.1,0.7,0.1h1.2c0.6,0,0.9-0.2,0.9-0.7v-4.5h10.3v4.5c0,0.5,0.3,0.7,0.9,0.7h1
	c0.6,0,1.1-0.2,1.5-0.5c0.4-0.3,0.6-0.7,0.6-1.1V11.8c0-0.2-0.1-0.4-0.2-0.6S158.7,10.9,158.5,10.7z"/>
<g>
	<g>
		<path class="st1" d="M172,57.6c0.9,0,1.8,0,2.7,0c0.9,0,1.6,0,2.1,0l-2.5-6.8L172,57.6z M-0.5,0.5v109h225V0.5H-0.5z M172.3,16.6
			c0-1,0.3-2,0.8-2.8c0.5-0.8,1.2-1.5,2.1-2.1s1.9-1,3-1.3c1.1-0.3,2.3-0.5,3.5-0.5h0.1c1.2,0.1,2.3,0.3,3.3,0.8c1,0.5,2,1,2.8,1.7
			c0.3,0.3,0.4,0.6,0.4,0.9c0,0.5-0.3,0.9-0.9,1.2l-0.1,0.1l-1.2,0.3c-0.2,0-0.4-0.1-0.6-0.2c-0.2-0.1-0.3-0.2-0.4-0.4
			c-0.4-0.5-0.9-0.8-1.7-1c-0.7-0.2-1.4-0.4-2.1-0.4c-0.7,0-1.3,0.1-1.9,0.3c-0.6,0.2-1.1,0.4-1.5,0.8c-0.4,0.3-0.8,0.7-1,1.2
			c-0.3,0.5-0.4,1-0.4,1.5v9.6c0,0.6,0.2,1.2,0.6,1.8c0.4,0.6,1,1,1.6,1.3c0.7,0.4,1.5,0.6,2.4,0.6c1.9,0,3.2-0.6,4-1.9
			c0.3-0.5,0.5-1,0.5-1.5v-4.6h-6.3v-1.5c0-0.4,0.2-0.8,0.6-1.1c0.4-0.3,0.9-0.4,1.5-0.4h6.7c0.3,0,0.7,0.1,1,0.3
			c0.3,0.2,0.5,0.5,0.5,0.8v6.8c0,0.3-0.1,0.7-0.2,1.1c-0.1,0.4-0.4,0.9-0.6,1.4s-0.7,0.9-1.1,1.4c-0.5,0.5-1.1,0.9-1.7,1.3
			c-1.3,0.7-2.9,1.1-4.8,1.1h-0.3c-1.1,0-2.2-0.2-3.2-0.5c-1-0.4-1.9-0.8-2.7-1.5c-0.8-0.6-1.4-1.3-1.9-2.1
			c-0.5-0.8-0.7-1.7-0.7-2.6V16.6z M163.1,30.6c0-0.3,0.1-0.5,0.2-0.6c0.1-0.1,0.2-0.2,0.4-0.3s0.3-0.1,0.5-0.1c0.2,0,0.3,0,0.5,0
			h0.3l0.2-15.8h-2v-0.9l0-0.9c0-0.3,0.2-0.5,0.5-0.7c0.3-0.2,0.7-0.3,1-0.3h4.6c0.5,0,0.9,0.1,1.1,0.4c0.3,0.2,0.4,0.5,0.4,0.8v1.7
			h-1.8l-0.1,15.9h0.4c0.1,0,0.2,0,0.4,0c0.2,0,0.3,0,0.5,0.1c0.1,0.1,0.3,0.2,0.4,0.3c0.1,0.1,0.2,0.3,0.2,0.6v1.2
			c0,0.1,0,0.3-0.1,0.5s-0.3,0.2-0.7,0.2H164c-0.5,0-0.7-0.1-0.8-0.4s-0.1-0.5-0.1-0.6V30.6z M127.1,43.6c-2.1-1.1-15-7.7-24.3-10.3
			c-1.4-2.8-3-5.1-4.2-6.7c1.1,0,5.9,0,11.4,1.8C115.7,30.3,123.2,34.4,127.1,43.6z M47.2,5.1C48.6,5,49.9,5,51.2,5
			c17.5,0,34.8,8.2,57,19.6c0.6,0.3,1.1,0.6,1.6,0.9c-5.7-1.3-13.1-1.4-13.2-1.4l0,0c0,0-2.1,0-5.7,0.1c-0.6-0.4-9.6-6.7-23-12.2
			c-8.3-3.4-19-6-22-6.6C46.3,5.2,46.8,5.2,47.2,5.1z M40.8,5.9c0.7,0.1,13.9,2.7,23.3,6.5c12.4,5.1,21.8,10.7,23.6,11.8
			c-2.8,0.2-6.2,0.4-10.1,0.8c-1.6,0.2-3.2,0.4-4.8,0.6c-0.7-0.4-12.6-7.3-21.2-10.6C39.4,10.7,31.8,9.3,29.9,9
			C33.1,7.7,36.7,6.6,40.8,5.9z M26.8,10.5c0.8,0.1,9.6,1.7,19.1,4.7c8.8,2.8,21.8,9.9,23.9,11.1c-4.6,0.9-8.9,2-13,3.3
			c-0.7-0.4-10.2-5.8-19.5-9.2c-8.6-3.1-16.5-4.8-18.1-5.2C21.5,13.6,24,11.9,26.8,10.5z M14,19.9c1.1-1,2.2-2.1,3.4-3.1
			c1.1,0.2,12.2,2.7,17.7,4.8c5,1.9,17.3,7.9,19.2,8.9c-3.8,1.3-7.4,2.8-10.7,4.3c-0.8-0.4-11.8-6-16.9-8c-7.5-3-13.7-4.3-14.9-4.5
			C12.7,21.3,13.4,20.5,14,19.9z M10.6,23.9c0.8,0.2,8.2,1.7,15,4.5c3.3,1.3,14.1,6.4,15.9,7.3c-3.7,1.7-7.2,3.5-10.4,5.2
			c-0.8-0.5-10.6-6.6-24.4-10.5C7.9,28,9.3,25.8,10.6,23.9z M6.1,47.9c-1.6-1.6-2.4-3.8-2.4-6.6c0-2.8,0.9-6,2.2-9.1
			c9,2.2,21.5,8.8,23.2,9.7c-0.3,0.2-0.6,0.3-0.9,0.5C17.3,48.1,10.1,51.9,6.1,47.9z M58.9,104L75,76.1l4.8,8.3l-6.5,11.2l31.4,0
			L79.3,51.5L49,104H12.7l39.9-69.2l8.5,14.8l-4.8,8.3l-3.7-6.4L27.1,95.6h17l35.1-60.8l39.9,69.2L58.9,104z M110.4,70.4
			c-3.1-1.2-2.9-4.3-2.7-9.3c0-1,0.1-2,0.1-3.1c3.1,0.8,13.9,6.1,15.3,6.8C119.2,69.3,113.6,71.7,110.4,70.4z M125.8,60.7
			c-0.4,0.9-0.9,1.7-1.5,2.5c-1.3-0.6-13.2-6.3-16.5-7.2c0-2.6-0.1-5.5-0.7-8.8c4.9,1.2,19.1,8.4,20.2,9
			C127,58,126.4,59.5,125.8,60.7z M127.9,54.4c-1.6-0.9-15.8-8.3-21-9.4c-0.3-1.3-0.6-2.7-1-4.1c-0.5-1.8-1.1-3.5-1.8-5.1
			c4.8,1.1,23.7,10.5,23.9,10.6l0,0C128.4,49.3,128.3,52,127.9,54.4z M145,31.8c0,0.5-0.3,0.7-0.9,0.7h-1.2c-0.2,0-0.5,0-0.7-0.1
			c-0.2-0.1-0.5-0.2-0.7-0.3c-0.2-0.1-0.4-0.3-0.5-0.5c-0.1-0.2-0.2-0.4-0.2-0.6V12c0-0.2,0-0.4,0.1-0.6c0.1-0.2,0.2-0.4,0.4-0.6
			s0.4-0.3,0.6-0.4c0.3-0.1,0.6-0.2,0.9-0.2h0.5c0.5,0,0.8,0.1,1.1,0.4c0.3,0.3,0.4,0.5,0.4,0.7v12.9h10.3V11.3
			c0-0.2,0.1-0.5,0.4-0.7c0.3-0.3,0.7-0.4,1.1-0.4h0.3c0.3,0,0.5,0,0.8,0.1c0.3,0.1,0.5,0.2,0.7,0.4c0.2,0.1,0.4,0.3,0.5,0.5
			s0.2,0.4,0.2,0.6v19.1c0,0.4-0.2,0.8-0.6,1.1c-0.4,0.3-0.9,0.5-1.5,0.5h-1c-0.6,0-0.9-0.2-0.9-0.7v-4.5H145V31.8z M147.6,59v-9.4
			c0-1,0.2-1.8,0.6-2.6c0.4-0.8,0.9-1.5,1.6-2.1c0.7-0.6,1.5-1,2.5-1.4c1-0.3,2.1-0.5,3.2-0.5c1.3,0,2.5,0.1,3.6,0.4
			c1.1,0.3,2.1,0.8,3,1.6l0.4,0.4c0.3,0.3,0.4,0.6,0.4,0.9c0,0.4-0.2,0.7-0.6,1l-1.9,1.2l-0.3-0.6c-0.4-0.8-1-1.4-1.7-1.7
			c-0.7-0.3-1.7-0.5-2.8-0.5c-0.7,0-1.3,0.1-1.8,0.3c-0.5,0.2-1,0.5-1.3,0.8c-0.4,0.3-0.6,0.8-0.8,1.2c-0.2,0.5-0.3,0.9-0.3,1.5V59
			c0,0.4,0.1,0.9,0.2,1.3c0.1,0.4,0.3,0.8,0.6,1.2c0.3,0.4,0.7,0.7,1.3,0.9c0.6,0.2,1.3,0.3,2.1,0.3c0.7,0,1.2-0.1,1.7-0.2
			c0.5-0.1,0.9-0.2,1.3-0.4c0.4-0.2,0.7-0.3,1-0.5c0.3-0.2,0.5-0.4,0.7-0.5c0.2-0.2,0.4-0.3,0.6-0.5c0.2-0.1,0.4-0.2,0.7-0.2
			c0.2,0,0.4,0.1,0.6,0.2c0.2,0.1,0.4,0.2,0.5,0.4c0.2,0.2,0.3,0.3,0.4,0.5s0.2,0.3,0.2,0.5c0,0.2-0.1,0.4-0.2,0.6
			c-0.1,0.2-0.3,0.3-0.4,0.5c-0.5,0.4-0.9,0.7-1.4,1c-0.5,0.3-1,0.6-1.5,0.8c-0.6,0.2-1.2,0.4-1.8,0.5s-1.4,0.2-2.2,0.2
			c-1.2,0-2.3-0.2-3.3-0.5c-1-0.3-1.8-0.7-2.5-1.3c-0.7-0.6-1.2-1.2-1.6-2C147.8,60.9,147.6,60,147.6,59z M166.2,79.6h-13.6v4.9h8.6
			c0.6,0,1.1,0.2,1.5,0.5c0.4,0.3,0.6,0.7,0.6,1v1.5h-10.7V98c0,0.1,0,0.3-0.1,0.5c-0.1,0.2-0.3,0.2-0.7,0.2h-1.2
			c-0.5,0-1-0.1-1.4-0.4c-0.4-0.3-0.7-0.7-0.7-1.1V78c0-0.2,0.1-0.4,0.2-0.6c0.1-0.2,0.3-0.3,0.5-0.5s0.4-0.2,0.7-0.3
			s0.5-0.1,0.7-0.1h13.6c0.6,0,1.1,0.1,1.5,0.4c0.4,0.3,0.6,0.6,0.6,1.1V79.6z M182.5,96.9c0,0.5-0.2,0.9-0.6,1.2
			c-0.4,0.3-0.9,0.5-1.5,0.5h-10.5c-0.6,0-1.1-0.2-1.5-0.5s-0.6-0.7-0.6-1v-19c0-0.4,0.2-0.8,0.6-1.1c0.4-0.3,0.9-0.4,1.5-0.4h2.1
			v19h10.5V96.9z M183.1,65.1c-0.1,0.1-0.3,0.2-0.6,0.3s-0.8,0.2-1.6,0.2c0,0-0.1,0-0.2,0s-0.1,0-0.1,0l-0.1,0
			c-0.3,0-0.5-0.1-0.8-0.2s-0.5-0.3-0.7-0.7l-1.3-4.2h-6.9l-1.4,4.1c-0.1,0.3-0.3,0.5-0.6,0.6s-0.6,0.3-1,0.3h-0.5
			c-1,0-1.7-0.1-2-0.4c-0.2-0.2-0.2-0.4-0.2-0.6l1.6-4.3l5.5-15.6c0.2-0.3,0.4-0.6,0.8-0.8c0.3-0.2,0.8-0.4,1.2-0.4
			c0.6,0,1,0.1,1.4,0.4c0.3,0.3,0.6,0.5,0.7,0.8l4.9,13.9l0.6,1.7l1.3,4.2C183.3,64.7,183.3,64.9,183.1,65.1z M202.2,78.1
			c0,0.1-0.1,0.3-0.3,0.6c-0.2,0.3-0.4,0.7-0.8,1.3c-0.4,0.6-0.9,1.4-1.5,2.5c-0.6,1-1.5,2.4-2.5,4l-1.9,3.1v9.1h-2
			c-0.5,0-0.9-0.2-1.2-0.5c-0.4-0.3-0.6-0.7-0.6-1v-7.5l-1.4-2.2c-1.1-1.8-2-3.3-2.7-4.4s-1.3-2.1-1.7-2.7c-0.4-0.7-0.7-1.2-0.9-1.5
			c-0.2-0.3-0.3-0.5-0.3-0.6h0c-0.1-0.1-0.1-0.3-0.1-0.5c0-0.2,0.1-0.4,0.2-0.5c0.2-0.3,0.6-0.4,1.1-0.4h2l5.6,9l5.6-9h2
			c0.5,0,0.9,0.1,1.1,0.4c0.1,0.2,0.2,0.3,0.2,0.5C202.3,77.8,202.3,77.9,202.2,78.1z M202.9,64.1c0,0.4-0.2,0.8-0.5,1.1
			c-0.3,0.3-0.8,0.4-1.3,0.4h-1.5l-11-15.2v15.2h-2c-0.5,0-1-0.1-1.3-0.4s-0.5-0.7-0.5-1.1V45.1c0-0.5,0.2-1,0.6-1.3
			c0.4-0.3,0.9-0.5,1.5-0.5h0.1l1.1,0.1l11.1,15.2L199,43.4h2.1c0.5,0,0.9,0.2,1.2,0.5c0.4,0.3,0.6,0.7,0.6,1V64.1z M209.8,30.9
			c0,0.4-0.2,0.8-0.6,1.1c-0.4,0.3-0.9,0.5-1.5,0.5h-1c-0.6,0-0.9-0.2-0.9-0.7v-4.5h-10.3v4.5c0,0.5-0.3,0.7-0.9,0.7h-1.2
			c-0.2,0-0.5,0-0.7-0.1c-0.2-0.1-0.5-0.2-0.7-0.3c-0.2-0.1-0.4-0.3-0.5-0.5c-0.1-0.2-0.2-0.4-0.2-0.6V12c0-0.2,0-0.4,0.1-0.6
			c0.1-0.2,0.2-0.4,0.4-0.6s0.4-0.3,0.6-0.4c0.3-0.1,0.6-0.2,0.9-0.2h0.5c0.5,0,0.8,0.1,1.1,0.4c0.3,0.3,0.4,0.5,0.4,0.7v12.9h10.3
			V11.3c0-0.2,0.1-0.5,0.4-0.7c0.3-0.3,0.7-0.4,1.1-0.4h0.3c0.3,0,0.5,0,0.8,0.1c0.3,0.1,0.5,0.2,0.7,0.4c0.2,0.1,0.4,0.3,0.5,0.5
			s0.2,0.4,0.2,0.6V30.9z"/>
	</g>
</g>
<g>
</g>
<g>
</g>
<g>
</g>
<g>
</g>
<g>
</g>
<g>
</g>
<g>
</g>
<g>
</g>
<g>
</g>
<g>
</g>
<g>
</g>
<g>
</g>
<g>
</g>
<g>
</g>
<g>
</g>
</svg>
