<?xml version="1.0" encoding="UTF-8"?>
<svg id="Calque_1" data-name="Calque 1" xmlns="http://www.w3.org/2000/svg" viewBox="0 0 225 109">
  <defs>
    <style>
      .cls-1 {
        fill: none;
      }

      .cls-2 {
        fill: #f8f8f8;
      }
    </style>
  </defs>
  <path class="cls-1" d="M143.41,31.96c-.23,0-.47-.04-.71-.12-.24-.08-.47-.19-.67-.33-.21-.14-.38-.3-.5-.5-.13-.19-.19-.39-.19-.59V11.45c0-.18,.05-.38,.14-.58,.09-.2,.22-.39,.4-.55s.39-.3,.64-.41c.25-.11,.55-.17,.9-.17h.52c.46,0,.83,.13,1.12,.39,.29,.26,.43,.5,.43,.72v12.86h10.34V10.85c0-.22,.14-.46,.43-.72,.29-.26,.65-.39,1.09-.39h.28c.25,0,.51,.05,.76,.14,.25,.09,.48,.21,.67,.36,.2,.15,.36,.31,.48,.5s.19,.37,.19,.55V30.41c0,.42-.2,.79-.59,1.09-.39,.3-.88,.46-1.45,.46h-1c-.58,0-.86-.23-.86-.69v-4.53h-10.34v4.53c0,.46-.29,.69-.86,.69h-1.21Z"/>
  <path class="cls-1" d="M143.41,31.96c-.23,0-.47-.04-.71-.12-.24-.08-.47-.19-.67-.33-.21-.14-.38-.3-.5-.5-.13-.19-.19-.39-.19-.59V11.45c0-.18,.05-.38,.14-.58,.09-.2,.22-.39,.4-.55s.39-.3,.64-.41c.25-.11,.55-.17,.9-.17h.52c.46,0,.83,.13,1.12,.39,.29,.26,.43,.5,.43,.72v12.86h10.34V10.85c0-.22,.14-.46,.43-.72,.29-.26,.65-.39,1.09-.39h.28c.25,0,.51,.05,.76,.14,.25,.09,.48,.21,.67,.36,.2,.15,.36,.31,.48,.5s.19,.37,.19,.55V30.41c0,.42-.2,.79-.59,1.09-.39,.3-.88,.46-1.45,.46h-1c-.58,0-.86-.23-.86-.69v-4.53h-10.34v4.53c0,.46-.29,.69-.86,.69h-1.21Z"/>
  <path class="cls-1" d="M99.16,26.07c1.19,1.6,2.73,3.91,4.17,6.74,9.24,2.6,22.13,9.19,24.28,10.31-3.92-9.22-11.43-13.37-17.08-15.22-5.48-1.8-10.29-1.85-11.37-1.83Z"/>
  <path class="cls-1" d="M91.34,23.62c3.64-.14,5.67-.1,5.71-.1h0c.14,0,7.59,.09,13.24,1.42-.53-.29-1.07-.58-1.64-.87C86.53,12.7,69.15,4.5,51.7,4.5c-1.32,0-2.63,.05-3.95,.14-.47,.03-.93,.07-1.38,.12,2.93,.67,13.7,3.24,21.96,6.64,13.39,5.53,22.43,11.8,23.03,12.22Z"/>
  <path class="cls-1" d="M73.25,25.25c1.58-.25,3.18-.46,4.81-.64,3.92-.42,7.34-.68,10.15-.84-1.85-1.13-11.24-6.74-23.61-11.84-9.37-3.86-22.55-6.38-23.25-6.52-4.15,.72-7.75,1.8-10.93,3.12,1.89,.29,9.48,1.63,21.62,6.15,8.65,3.22,20.53,10.16,21.21,10.56Z"/>
  <path class="cls-1" d="M57.32,29.09c4.1-1.33,8.44-2.47,13.02-3.33-2.11-1.16-15.11-8.24-23.91-11.06-9.46-3.03-18.26-4.59-19.11-4.73-2.86,1.45-5.34,3.09-7.55,4.81,1.59,.33,9.49,2.04,18.06,5.16,9.26,3.36,18.81,8.77,19.49,9.16Z"/>
  <path class="cls-1" d="M44.18,34.17c3.36-1.5,6.93-2.95,10.71-4.26-1.93-.95-14.21-7-19.23-8.9-5.45-2.06-16.62-4.54-17.68-4.77-1.23,1.04-2.37,2.1-3.45,3.15-.67,.65-1.37,1.43-2.09,2.31,1.19,.24,7.39,1.55,14.87,4.51,5.08,2.01,16.05,7.55,16.87,7.96Z"/>
  <path class="cls-1" d="M42.05,35.14c-1.74-.83-12.6-5.97-15.87-7.26-6.89-2.73-14.2-4.3-15.04-4.48-1.37,1.9-2.73,4.12-3.87,6.44,13.88,3.86,23.58,9.91,24.43,10.45,3.17-1.66,6.63-3.43,10.35-5.15Z"/>
  <path class="cls-1" d="M29.66,41.36c-1.74-.93-14.21-7.49-23.23-9.72-1.33,3.08-2.22,6.26-2.24,9.09-.02,2.78,.79,5.01,2.4,6.63,4.05,4.05,11.24,.25,22.12-5.5,.31-.16,.63-.33,.94-.5Z"/>
  <polygon class="cls-1" points="44.67 95.11 27.62 95.11 53.09 50.99 56.8 57.4 61.62 49.07 53.09 34.3 13.17 103.46 49.48 103.46 79.78 50.99 105.25 95.11 73.83 95.11 80.28 83.94 75.46 75.59 59.38 103.46 119.7 103.46 79.78 34.3 44.67 95.11"/>
  <path class="cls-1" d="M108.23,60.58c-.24,5.04-.39,8.07,2.71,9.31,3.15,1.26,8.8-1.11,12.7-5.62-1.36-.67-12.22-6.02-15.28-6.79-.03,1.1-.08,2.13-.13,3.1Z"/>
  <path class="cls-1" d="M108.39,55.52c3.28,.83,15.2,6.56,16.48,7.17,.55-.8,1.05-1.64,1.47-2.53,.56-1.18,1.16-2.7,1.63-4.47-1.15-.59-15.37-7.8-20.23-9.01,.52,3.3,.67,6.24,.66,8.84Z"/>
  <path class="cls-1" d="M128.4,45.92c-.19-.1-19.1-9.5-23.9-10.62,.69,1.59,1.33,3.31,1.84,5.12,.4,1.43,.73,2.81,1,4.13,5.18,1.02,19.39,8.49,21.02,9.35,.44-2.37,.57-5.09,.04-7.99h0Z"/>
  <path class="cls-1" d="M159.05,10.24c-.2-.15-.42-.27-.67-.36-.25-.09-.51-.14-.76-.14h-.28c-.44,0-.8,.13-1.09,.39-.29,.26-.43,.5-.43,.72v12.86h-10.34V10.85c0-.22-.14-.46-.43-.72-.29-.26-.66-.39-1.12-.39h-.52c-.35,0-.65,.06-.9,.17-.25,.11-.47,.25-.64,.41s-.31,.35-.4,.55c-.09,.2-.14,.4-.14,.58V30.41c0,.2,.06,.4,.19,.59,.13,.19,.29,.36,.5,.5,.21,.14,.43,.25,.67,.33,.24,.08,.48,.12,.71,.12h1.21c.58,0,.86-.23,.86-.69v-4.53h10.34v4.53c0,.46,.29,.69,.86,.69h1c.58,0,1.06-.15,1.45-.46,.39-.3,.59-.67,.59-1.09V11.29c0-.18-.06-.37-.19-.55s-.29-.35-.48-.5Z"/>
  <path class="cls-2" d="M172.55,57.12h2.73c.9,0,1.6,0,2.11-.03l-2.52-6.79-2.32,6.82ZM0,0V109H225V0H0ZM172.79,16.12c0-1.03,.26-1.96,.79-2.8,.53-.84,1.23-1.55,2.11-2.12s1.88-1.03,3.01-1.34c1.13-.31,2.29-.47,3.49-.47h.07c1.17,.06,2.28,.31,3.32,.77,1.04,.46,1.96,1.01,2.77,1.66,.3,.28,.45,.56,.45,.86,0,.52-.31,.93-.93,1.24l-.14,.08-1.25,.28c-.23,0-.43-.06-.59-.17-.16-.11-.3-.23-.42-.36-.39-.46-.95-.81-1.66-1.05-.71-.24-1.41-.36-2.07-.36s-1.33,.09-1.92,.28c-.59,.18-1.09,.44-1.52,.77-.43,.33-.77,.72-1.02,1.17-.25,.45-.38,.95-.38,1.5v9.58c0,.64,.2,1.24,.61,1.79,.4,.55,.95,.99,1.64,1.32,.71,.39,1.52,.58,2.42,.58,1.89,0,3.23-.63,4.01-1.9,.32-.51,.48-1.03,.48-1.55v-4.64h-6.26v-1.52c0-.42,.2-.78,.59-1.08,.39-.29,.89-.44,1.49-.44h6.74c.32,0,.66,.11,1,.32,.35,.21,.52,.47,.52,.79v6.79c0,.29-.07,.66-.21,1.1-.14,.44-.35,.9-.64,1.37s-.67,.94-1.14,1.41c-.47,.47-1.05,.89-1.75,1.26-1.31,.74-2.92,1.1-4.81,1.1h-.31c-1.13,0-2.21-.18-3.23-.54-1.03-.36-1.93-.85-2.71-1.46-.78-.62-1.41-1.33-1.87-2.14-.46-.81-.69-1.66-.69-2.57v-9.52Zm-9.23,13.99c0-.26,.05-.46,.16-.59,.1-.14,.24-.24,.4-.3s.33-.1,.52-.11c.18,0,.35-.01,.48-.01h.31l.17-15.84h-2.04v-.86l.03-.94c0-.29,.16-.54,.48-.75,.32-.2,.67-.3,1.04-.3h4.6c.48,0,.86,.12,1.12,.36,.26,.24,.4,.51,.4,.8v1.68h-1.83l-.07,15.87h.42c.09,0,.22,0,.38,.01,.16,0,.32,.05,.47,.11,.15,.06,.28,.16,.4,.29,.12,.13,.17,.32,.17,.58v1.16c0,.15-.04,.3-.12,.46s-.32,.23-.71,.23h-5.84c-.46,0-.73-.12-.81-.37s-.12-.46-.12-.65v-.83Zm-35.95,13.02c-2.15-1.11-15.04-7.71-24.28-10.31-1.45-2.83-2.99-5.14-4.17-6.74,1.09-.01,5.9,.03,11.37,1.83,5.65,1.85,13.16,6,17.08,15.22ZM47.74,4.64c1.32-.1,2.64-.14,3.95-.14,17.45,0,34.83,8.2,56.96,19.57,.56,.29,1.1,.58,1.64,.87-5.65-1.33-13.11-1.42-13.24-1.42h0s-2.07-.04-5.71,.1c-.6-.42-9.63-6.7-23.03-12.22-8.26-3.41-19.03-5.97-21.96-6.64,.46-.04,.92-.08,1.38-.12Zm-6.4,.78c.7,.13,13.88,2.65,23.25,6.52,12.37,5.1,21.75,10.71,23.61,11.84-2.81,.16-6.22,.42-10.15,.84-1.63,.17-3.23,.39-4.81,.64-.68-.4-12.56-7.34-21.21-10.56-12.14-4.52-19.73-5.86-21.62-6.15,3.18-1.32,6.79-2.4,10.93-3.12Zm-14.02,4.55c.85,.15,9.65,1.71,19.11,4.73,8.79,2.82,21.8,9.89,23.91,11.06-4.58,.86-8.92,2.01-13.02,3.33-.68-.38-10.23-5.8-19.49-9.16-8.57-3.11-16.47-4.82-18.06-5.16,2.21-1.72,4.69-3.36,7.55-4.81Zm-12.79,9.42c1.08-1.05,2.22-2.11,3.45-3.15,1.05,.23,12.22,2.71,17.68,4.77,5.03,1.9,17.3,7.94,19.23,8.9-3.78,1.31-7.35,2.77-10.71,4.26-.82-.41-11.78-5.96-16.87-7.96-7.48-2.96-13.68-4.27-14.87-4.51,.72-.88,1.42-1.67,2.09-2.31Zm-3.39,4.01c.84,.18,8.15,1.75,15.04,4.48,3.27,1.29,14.13,6.44,15.87,7.26-3.73,1.73-7.18,3.49-10.35,5.15-.85-.54-10.55-6.59-24.43-10.45,1.14-2.33,2.5-4.54,3.87-6.44Zm-4.54,23.96c-1.61-1.61-2.42-3.84-2.4-6.63,.02-2.84,.91-6.02,2.24-9.09,9.02,2.23,21.48,8.79,23.23,9.72-.32,.17-.63,.33-.94,.5-10.88,5.75-18.07,9.55-22.12,5.5Zm52.78,56.09l16.09-27.86,4.82,8.34-6.45,11.18h31.42s-25.48-44.12-25.48-44.12l-30.29,52.47H13.17L53.09,34.3l8.52,14.76-4.81,8.34-3.71-6.41-25.48,44.12h17.05l35.11-60.81,39.93,69.15H59.38Zm51.56-33.56c-3.09-1.24-2.95-4.28-2.71-9.31,.05-.96,.1-1.99,.13-3.1,3.05,.77,13.91,6.11,15.28,6.79-3.9,4.51-9.55,6.88-12.7,5.62Zm15.4-9.74c-.42,.89-.92,1.74-1.47,2.53-1.27-.61-13.2-6.34-16.48-7.17,0-2.6-.14-5.54-.66-8.84,4.86,1.2,19.08,8.42,20.23,9.01-.46,1.76-1.07,3.28-1.63,4.47Zm2.03-6.26c-1.62-.86-15.83-8.33-21.02-9.35-.27-1.32-.59-2.7-1-4.13-.51-1.82-1.15-3.53-1.84-5.12,4.8,1.12,23.7,10.52,23.9,10.62h0c.53,2.89,.4,5.61-.04,7.98Zm17.12-22.63c0,.46-.29,.69-.86,.69h-1.21c-.23,0-.47-.04-.71-.12-.24-.08-.47-.19-.67-.33-.21-.14-.38-.3-.5-.5-.13-.19-.19-.39-.19-.59V11.45c0-.18,.05-.38,.14-.58,.09-.2,.22-.39,.4-.55s.39-.3,.64-.41c.25-.11,.55-.17,.9-.17h.52c.46,0,.83,.13,1.12,.39,.29,.26,.43,.5,.43,.72v12.86h10.34V10.85c0-.22,.14-.46,.43-.72,.29-.26,.65-.39,1.09-.39h.28c.25,0,.51,.05,.76,.14,.25,.09,.48,.21,.67,.36,.2,.15,.36,.31,.48,.5s.19,.37,.19,.55V30.41c0,.42-.2,.79-.59,1.09-.39,.3-.88,.46-1.45,.46h-1c-.58,0-.86-.23-.86-.69v-4.53h-10.34v4.53Zm2.59,27.24v-9.38c0-.96,.2-1.83,.59-2.62,.39-.79,.93-1.48,1.62-2.06,.69-.58,1.53-1.03,2.51-1.35,.98-.32,2.06-.48,3.23-.48,1.31,0,2.51,.15,3.58,.44,1.07,.29,2.06,.83,2.96,1.6l.41,.39c.25,.31,.38,.63,.38,.94,0,.4-.21,.73-.62,.97l-1.87,1.16-.28-.55c-.42-.79-.98-1.36-1.69-1.71-.71-.35-1.66-.52-2.83-.52-.69,0-1.3,.1-1.83,.3-.53,.2-.97,.48-1.33,.83-.36,.35-.63,.75-.81,1.21-.18,.46-.28,.95-.28,1.46v9.38c0,.42,.06,.86,.17,1.3,.12,.44,.33,.84,.64,1.2,.31,.36,.74,.65,1.3,.88,.55,.23,1.27,.35,2.14,.35,.67,0,1.24-.06,1.73-.17,.48-.11,.91-.24,1.28-.4,.37-.16,.69-.33,.95-.51,.26-.18,.5-.36,.71-.52,.23-.18,.44-.34,.62-.46,.18-.12,.4-.18,.66-.18,.18,0,.37,.05,.57,.17,.2,.11,.37,.25,.54,.41,.16,.17,.29,.34,.4,.51s.16,.33,.16,.46c0,.2-.07,.39-.21,.57-.14,.18-.29,.33-.45,.46-.46,.39-.93,.73-1.4,1.03-.47,.3-.99,.56-1.54,.77-.55,.21-1.15,.37-1.8,.48s-1.38,.17-2.21,.17c-1.2,0-2.29-.16-3.28-.47-.99-.31-1.83-.75-2.52-1.31-.69-.56-1.23-1.24-1.61-2.04-.38-.8-.57-1.7-.57-2.69Zm18.67,20.56h-13.55v4.94h8.61c.6,0,1.09,.16,1.49,.48,.39,.32,.59,.67,.59,1.03v1.55h-10.68v10.43c0,.15-.05,.3-.14,.46-.09,.16-.32,.23-.69,.23h-1.21c-.51,0-.98-.14-1.42-.41-.44-.28-.66-.65-.66-1.13v-19.15c0-.2,.06-.39,.19-.57,.13-.17,.29-.33,.5-.47s.43-.25,.67-.33,.48-.12,.71-.12h13.55c.58,0,1.06,.14,1.45,.43,.39,.29,.59,.64,.59,1.06v1.57Zm16.21,17.36c0,.48-.21,.89-.62,1.24-.42,.35-.9,.52-1.45,.52h-10.47c-.6,0-1.09-.17-1.49-.5s-.59-.68-.59-1.05v-18.99c0-.42,.2-.78,.59-1.08,.39-.29,.89-.44,1.49-.44h2.07v19.01h10.47v1.27Zm.69-31.79c-.12,.11-.31,.23-.57,.34s-.79,.18-1.57,.18h-.17c-.07,0-.12,0-.14-.03l-.1,.03c-.25,0-.52-.06-.79-.17s-.51-.34-.69-.69l-1.31-4.17h-6.91l-1.42,4.08c-.09,.26-.29,.47-.59,.65s-.65,.26-1.04,.26h-.48c-1.01,0-1.67-.15-1.97-.44-.16-.17-.22-.37-.17-.61l1.62-4.28,5.5-15.59c.18-.31,.45-.59,.79-.84,.35-.25,.76-.37,1.24-.37,.58,0,1.04,.13,1.38,.4,.35,.27,.58,.55,.69,.84l4.87,13.91,.62,1.66,1.31,4.17c.09,.2,.06,.42-.1,.66Zm19.08,12.97c-.05,.11-.14,.3-.29,.57-.15,.27-.42,.7-.79,1.31-.38,.61-.89,1.43-1.52,2.47-.63,1.04-1.46,2.38-2.47,4.01l-1.9,3.15v9.05h-2.04c-.46,0-.88-.16-1.25-.47-.37-.31-.55-.66-.55-1.05v-7.53l-1.38-2.24c-1.11-1.8-2.01-3.28-2.71-4.43s-1.26-2.07-1.68-2.75c-.42-.68-.7-1.17-.86-1.48-.16-.3-.27-.51-.31-.62h-.03c-.07-.15-.1-.31-.09-.5,.01-.18,.09-.36,.22-.52,.23-.29,.61-.44,1.14-.44h2.01l5.6,9.02,5.63-9.02h2.04c.51,0,.88,.15,1.11,.44,.14,.17,.21,.34,.22,.52,.01,.18-.02,.35-.09,.5Zm.69-14.04c0,.42-.17,.78-.52,1.08-.35,.29-.77,.44-1.28,.44h-1.49l-10.99-15.18v15.18h-2.04c-.53,0-.96-.15-1.3-.44s-.5-.65-.5-1.08v-18.9c0-.53,.19-.96,.57-1.27,.38-.31,.89-.47,1.54-.47h.07l1.11,.08,11.06,15.23-.14-15.29h2.11c.46,0,.88,.16,1.24,.47,.37,.31,.55,.66,.55,1.05v19.1Zm6.88-33.14c0,.42-.2,.79-.59,1.09-.39,.3-.88,.46-1.45,.46h-1c-.58,0-.86-.23-.86-.69v-4.53h-10.34v4.53c0,.46-.29,.69-.86,.69h-1.21c-.23,0-.47-.04-.71-.12-.24-.08-.47-.19-.67-.33-.21-.14-.38-.3-.5-.5-.13-.19-.19-.39-.19-.59V11.45c0-.18,.05-.38,.14-.58,.09-.2,.22-.39,.4-.55s.39-.3,.64-.41c.25-.11,.55-.17,.9-.17h.52c.46,0,.83,.13,1.12,.39,.29,.26,.43,.5,.43,.72v12.86h10.34V10.85c0-.22,.14-.46,.43-.72,.29-.26,.65-.39,1.09-.39h.28c.25,0,.51,.05,.76,.14,.25,.09,.48,.21,.67,.36,.2,.15,.36,.31,.48,.5s.19,.37,.19,.55V30.41Z"/>
</svg>